<?xml version="1.0" standalone="no"?>
<!DOCTYPE svg PUBLIC "-//W3C//DTD SVG 20010904//EN"
 "http://www.w3.org/TR/2001/REC-SVG-20010904/DTD/svg10.dtd">
<svg version="1.0" xmlns="http://www.w3.org/2000/svg"
 width="331.000000pt" height="253.000000pt" viewBox="0 0 331.000000 253.000000"
 preserveAspectRatio="xMidYMid meet">

<g transform="translate(0.000000,253.000000) scale(0.100000,-0.100000)"
fill="#000000" stroke="none">
<path d="M1559 2439 c-11 -11 -18 -27 -15 -36 3 -8 6 -18 6 -23 0 -12 34 -22
54 -14 24 9 22 70 -4 84 -16 8 -24 6 -41 -11z m41 -29 c0 -33 -24 -42 -32 -12
-7 24 1 42 18 42 9 0 14 -11 14 -30z"/>
<path d="M1713 2453 c-21 -7 -14 -22 7 -16 27 7 25 -9 -5 -37 -13 -12 -22 -27
-19 -31 7 -12 64 -11 64 1 0 6 -7 10 -16 10 -14 0 -14 2 0 22 9 12 16 28 16
34 0 13 -28 23 -47 17z"/>
<path d="M1414 2425 c-18 -15 -18 -15 9 -9 31 7 33 4 11 -37 -8 -17 -13 -33
-11 -35 7 -8 57 7 57 17 0 5 -7 6 -15 3 -18 -7 -19 -3 -3 31 10 22 9 28 -3 36
-19 12 -22 11 -45 -6z"/>
<path d="M1840 2403 l-22 -28 24 -6 c12 -3 22 -11 21 -17 -2 -7 1 -12 5 -12
16 0 30 22 25 41 -4 15 -8 17 -19 8 -22 -18 -29 -1 -9 21 10 11 13 20 7 20 -6
0 -20 -12 -32 -27z"/>
<path d="M1290 1963 c-8 -3 -18 -11 -22 -17 -13 -18 -9 -138 6 -195 10 -38 10
-53 2 -56 -6 -1 -36 -8 -66 -14 -101 -21 -270 -120 -270 -158 0 -9 17 -38 38
-65 107 -141 284 -229 468 -232 41 0 74 -3 74 -5 0 -2 -11 -17 -26 -33 -39
-48 -75 -125 -81 -179 -4 -35 -12 -52 -28 -63 -13 -8 -27 -28 -32 -43 -20 -55
18 -97 81 -92 22 2 42 -5 67 -24 86 -66 222 -97 337 -78 156 27 277 86 375
182 81 81 119 155 125 247 6 83 -29 157 -99 210 -26 20 -48 40 -48 44 -1 3 14
15 31 26 32 21 33 21 51 1 30 -33 67 -17 67 28 0 30 -39 46 -89 37 -39 -7 -91
-33 -91 -46 0 -4 -5 -8 -10 -8 -6 0 -4 15 5 37 21 51 36 66 49 53 14 -14 59
-13 74 2 17 17 15 63 -3 78 -53 44 -184 -68 -185 -158 0 -22 -3 -23 -71 -20
l-71 3 -19 73 c-45 179 -164 325 -330 406 -109 52 -254 80 -309 59z m208 -114
c156 -53 272 -168 329 -326 l24 -66 -75 70 c-97 93 -213 149 -347 168 -43 6
-47 9 -58 46 -7 22 -15 62 -18 90 l-6 51 49 -7 c27 -4 73 -16 102 -26z m-35
-254 c37 -8 98 -30 135 -50 76 -40 168 -118 157 -135 -10 -16 -104 -61 -160
-76 -66 -18 -206 -17 -274 1 -29 7 -76 25 -105 39 -61 30 -166 114 -166 133 0
23 147 86 225 96 64 9 123 6 188 -8z m685 -275 c94 -41 143 -123 123 -211 -13
-56 -22 -63 -89 -69 -69 -6 -75 -24 -9 -28 26 -2 47 -7 47 -13 0 -15 -88 -99
-103 -99 -25 0 -108 67 -148 120 -53 70 -73 144 -66 237 3 40 9 78 13 84 12
20 171 6 232 -21z m-356 -71 c-10 -134 41 -254 152 -355 l70 -63 -40 -17 c-55
-23 -76 -21 -125 14 -67 46 -126 112 -150 166 -27 62 -35 158 -20 223 11 44
17 52 54 71 62 31 64 30 59 -39z m-222 -213 c16 -74 55 -145 118 -210 l57 -58
-50 7 c-104 15 -183 75 -205 156 -15 55 -5 104 33 170 l32 54 3 -35 c1 -19 7
-57 12 -84z"/>
<path d="M2020 1251 c-15 -28 -12 -46 8 -64 22 -20 63 -22 80 -5 15 15 16 64
2 73 -5 3 -10 0 -10 -8 0 -23 -33 -31 -47 -11 -7 9 -10 21 -7 25 3 5 1 9 -5 9
-6 0 -15 -9 -21 -19z"/>
<path d="M430 470 c0 -29 2 -30 45 -30 l45 0 0 -120 0 -120 35 0 35 0 0 120 0
120 45 0 c43 0 45 1 45 30 l0 30 -125 0 -125 0 0 -30z"/>
<path d="M770 350 l0 -150 35 0 35 0 0 60 0 61 63 -3 62 -3 3 -57 3 -58 34 0
35 0 0 150 0 150 -35 0 -34 0 -3 -62 -3 -63 -62 -3 -63 -3 0 66 0 65 -35 0
-35 0 0 -150z"/>
<path d="M1150 395 c0 -120 12 -155 62 -181 22 -11 48 -15 85 -12 44 4 60 11
86 37 32 31 32 32 35 146 l4 115 -36 0 -36 0 0 -91 c0 -117 -15 -149 -72 -149
-45 0 -58 31 -58 142 l0 98 -35 0 -35 0 0 -105z"/>
<path d="M1562 356 c-34 -80 -62 -147 -62 -150 0 -4 16 -6 36 -6 30 0 37 4 45
30 11 29 13 30 75 30 60 0 64 -1 79 -30 13 -25 22 -30 51 -30 42 0 44 -10 -31
168 l-54 127 -39 3 -38 3 -62 -145z m121 15 c9 -27 17 -51 17 -55 0 -3 -18 -6
-40 -6 -22 0 -40 3 -40 8 0 14 34 102 40 102 3 0 13 -22 23 -49z"/>
<path d="M1910 350 l0 -150 30 0 30 0 0 90 c0 50 3 90 8 90 4 -1 36 -41 72
-90 59 -80 68 -89 98 -90 l32 0 0 150 0 150 -35 0 -34 0 -3 -90 -3 -91 -68 91
c-58 78 -71 90 -97 90 l-30 0 0 -150z"/>
<path d="M2270 470 c0 -29 2 -30 45 -30 l45 0 0 -120 0 -120 35 0 35 0 0 120
0 120 45 0 c43 0 45 1 45 30 l0 30 -125 0 -125 0 0 -30z"/>
<path d="M2586 478 c4 -13 29 -80 57 -150 l49 -128 38 0 37 0 56 144 c32 79
57 147 57 150 0 3 -15 6 -34 6 -37 0 -41 -6 -90 -157 -10 -29 -21 -53 -24 -53
-4 0 -23 46 -42 103 l-35 102 -39 3 c-35 3 -37 2 -30 -20z"/>
</g>
</svg>
